# xmcd CD database file
#
# Track frame offsets:
#	150
#	11428
#	12288
#	27899
#	38291
#	55900
#	65617
#	81336
#	98939
#	113519
#	129412
#	144532
#	162579
#	179371
#	195526
#	219984
#	237957
#
# Disc length: 3183 seconds
#
# Revision: 0
# Processed by: cddbd v1.5PL3 Copyright (c) Steve Scherf et al.
# Submitted via: CDex 1.50
#
DISCID=db0c6d11
DTITLE=Lutz Eikelmann - 10 Jahre Lutzemann's Jatzkapelle 1993-2003
DYEAR=2003
DGENRE=Jazz
TTITLE0=Happy Birthday
TTITLE1=LJK-Jingle
TTITLE2=Canal Street Blues
TTITLE3=Tishomingo
TTITLE4=Ain't She Sweet
TTITLE5=Georgia Grind
TTITLE6=Big Butter And Egg Man
TTITLE7=Just A Closer Walk With Thee
TTITLE8=Oh Lady Be Good
TTITLE9=Ain't Misbevavin'
TTITLE10=Doctor Jazz Stomp
TTITLE11=Jungle Blues
TTITLE12=Cornet Chop Suey
TTITLE13=Lambeth Walk
TTITLE14=Memories Of You
TTITLE15=I'm Sitting On Top Of The World
TTITLE16=LJK- Jingle
EXTD=YEAR: 2003
EXTT0=
EXTT1=
EXTT2=
EXTT3=
EXTT4=
EXTT5=
EXTT6=
EXTT7=
EXTT8=
EXTT9=
EXTT10=
EXTT11=
EXTT12=
EXTT13=
EXTT14=
EXTT15=
EXTT16=
PLAYORDER=
